/* XPM */
static char *logo32[] = {
/* columns rows colors chars-per-pixel */
"32 32 202 2 ",
"   c #112A5C1C4F1D",
".  c #29874A3A41AC",
"X  c #36B74E2945EA",
"o  c #207A593A4DB6",
"O  c #07246361540F",
"+  c #0B5864A955A3",
"@  c #1C3961DF54CD",
"#  c #1A196AF75C2F",
"$  c #2AFE654B58C8",
"%  c #30946CE15F47",
"&  c #214B7158623C",
"*  c #2D48711362E1",
"=  c #300C76696796",
"-  c #39BE745A6751",
";  c #3334774568C0",
":  c #485354694C8F",
">  c #53C753C14D4B",
",  c #4D8B4DBD58AD",
"<  c #54B75FA9576A",
"1  c #578455665D7C",
"2  c #61A054B150D0",
"3  c #67B15F3857AA",
"4  c #654B5D465E7A",
"5  c #6A075E215A63",
"6  c #6F8F61DD5F41",
"7  c #547658D16A64",
"8  c #60075CDB682C",
"9  c #4D4E74A26935",
"0  c #4F867BBC6F8B",
"q  c #59E478C26D32",
"w  c #6AD66CA46537",
"e  c #72A664675FEE",
"r  c #7A606ADF6390",
"t  c #7C486EA26964",
"y  c #7E0671F26B87",
"u  c #6722688A777A",
"i  c #62A067A17B1F",
"p  c #83474DA2314C",
"a  c #87855B474724",
"s  c #92285E124332",
"d  c #906E5EE547F8",
"f  c #90D562214AF6",
"g  c #9C0F686B4D79",
"h  c #826A62BA52E4",
"j  c #9576687E5332",
"k  c #9C986CDA54BE",
"l  c #97DB6E545A65",
"z  c #A1246F36570A",
"x  c #A13C71D657B9",
"c  c #A2CC77675F2E",
"v  c #A8FF769C5C10",
"b  c #8A2176A76D9F",
"n  c #89C979356FDF",
"m  c #923471F0614F",
"M  c #9FDA77FD6454",
"N  c #9D767BC8680D",
"B  c #875C7CB6736E",
"V  c #89C37D157B43",
"C  c #94F27F277479",
"Z  c #A5C477386211",
"A  c #A54F791C60A1",
"S  c #AC617DBB64B1",
"D  c #A0EA7B18683D",
"F  c #A9C07F7969C4",
"G  c #B13E7F136316",
"H  c #48ED83F17590",
"J  c #658887437975",
"K  c #63118D607FCC",
"L  c #713089347B8E",
"P  c #9A7C800675FF",
"I  c #9C59847E7BCC",
"U  c #A6FC82136EAB",
"Y  c #AE07816B6A14",
"T  c #B30A85956BB0",
"R  c #B57688F86F7A",
"E  c #B84F88B96D3B",
"W  c #AC6886D47433",
"Q  c #AE8C8C1C7863",
"!  c #B3ED86F1713F",
"~  c #B4EF893C7272",
"^  c #BA178B907472",
"/  c #B3638D407A06",
"(  c #B8F08EEC7A02",
")  c #BD4E925378C7",
"_  c #C2C196D17D5C",
"`  c #5A1D66D0860E",
"'  c #66187019891E",
"]  c #6AB67701951E",
"[  c #686779119E9B",
"{  c #71017B5D9641",
"}  c #71307CDF9A3E",
"|  c #6B0A7C6EA27E",
" . c #67AB7CFDABE2",
".. c #83BC7FB687EF",
"X. c #744E8356A515",
"o. c #7ED288F9A50F",
"O. c #6A3C8253B40A",
"+. c #6D5D8712BC69",
"@. c #6F5F8908BD99",
"#. c #700B85A0B29C",
"$. c #7CBB8CC0B4B4",
"%. c #72638BD4BEF8",
"&. c #7C479149BE12",
"*. c #74E18E6DC17F",
"=. c #783F8FDEC12D",
"-. c #771090C8C2E1",
";. c #799192F0C42C",
":. c #817698838AE1",
">. c #9D3F92D0849E",
",. c #9BFC9B0D8E8C",
"<. c #812185A79D5B",
"1. c #89BE8CE39DF9",
"2. c #93179017973B",
"3. c #9CED9FC390E4",
"4. c #A2A28E02854D",
"5. c #AA2395708A40",
"6. c #B50D937A814E",
"7. c #B8C397698673",
"8. c #BF1E9AB98650",
"9. c #A3C79645901F",
"0. c #A9FD9CB091E8",
"q. c #A74E97799A3E",
"w. c #B6569DE292AA",
"e. c #AE2DA0F59816",
"r. c #ACC3A5D69B9D",
"t. c #A948AD5F9FA3",
"y. c #BFDFA9529BE9",
"u. c #8FF68FE8A33D",
"i. c #80608C03B00D",
"p. c #9E2E9690A660",
"a. c #879C97E3BDF1",
"s. c #9CCB9DDFB69A",
"d. c #94A99EBCBED7",
"f. c #A8A899EEA54B",
"g. c #A1C29B57AAE9",
"h. c #97ADA07CBF13",
"j. c #991EA1A7BF03",
"k. c #B4A1A583A294",
"l. c #BF45A975A388",
"z. c #B8B0AB71AAE1",
"x. c #AC73B215A3FD",
"c. c #BA0CB162A40C",
"v. c #BA5DB847AC4E",
"b. c #ABC9A3C1B295",
"n. c #AED8A84FB680",
"m. c #A109A5EBBE86",
"M. c #A901A693BB04",
"N. c #A854A883BA9F",
"B. c #B49BB064BE4C",
"V. c #B920B156BD46",
"C. c #C3A09B208463",
"Z. c #C3D49E5B8FEF",
"A. c #CBBAA0628BCC",
"S. c #C97DA59594E5",
"D. c #C4CCA7669879",
"F. c #CE97A6769D94",
"G. c #CB85AAC39BFE",
"H. c #D288ACDF9DB1",
"J. c #C813ACE4A5BE",
"K. c #C493AE24ACBC",
"L. c #D332ACEBA314",
"P. c #CB0AB222A5AF",
"I. c #C7EDB695AE48",
"U. c #D597B10EA227",
"Y. c #D93FB22CA804",
"T. c #D57EB6E3ACBC",
"R. c #DA98B667AB33",
"E. c #D50CBA4AAF2B",
"W. c #DDA7B9F0AD79",
"Q. c #C4E4B3D7B69D",
"!. c #CA0BB7A2B8AF",
"~. c #C8C4B8FCBC62",
"^. c #D5D4BBB0B3C3",
"/. c #DD1DBE1BB2BB",
"(. c #DA86C017B8D1",
"). c #E1A3BB25AE73",
"_. c #E362BEF8B28B",
"`. c #CFC4C4E4B868",
"'. c #DD98C227B53E",
"]. c #D79AC36CBFC2",
"[. c #DE3BC4F1BABF",
"{. c #DCCDC8A0BC6E",
"}. c #E371C2F2B639",
"|. c #E54CC679BA28",
" X c #E5ACCA3FBDBB",
".X c #E931CBA7BE6D",
"XX c #837E9668C125",
"oX c #8E229C1DC147",
"OX c #AE96AE55C05E",
"+X c #AECCB1A3C2A6",
"@X c #B3E0B45EC447",
"#X c #BFF6B7B8C0AE",
"$X c #D274C4A4C31B",
"%X c #DE75CB2FC26B",
"&X c #E620CEB6C274",
"*X c #E97FCE6DC1EA",
"=X c #E5F9D259C60E",
"-X c #EA3CD28EC542",
";X c #E810D3DEC8C7",
":X c #EC06D62CC993",
">X c #EDC2D955CC08",
",X c None",
/* pixels */
",X,X,X,X,X,X,X,X,X,X,X,X,X,X,X,X,X,X,X,X,X,X,X,X,X,X,X,X,X,X,X,X",
",X,X,X,X,X,X,X,X,X,X,X,X,X,X,X,X,X,X,X,X,X,X,X,X,X,X,X,X,X,X,X,X",
",X,X,X,X,X,X,X,X,X,X,X,X,X,X,X,X,X,X,X,X,X,X,X,X,X,X,X,X,X,X,X,X",
",X|.|.|.|.*X-X*X*X,X,X,X,X,X,X,X,X,X,X,X,X,X,X,X,X,X,X,X,X,X,X,X",
",X;X*X X}.}. X|.E.W._.|..XG.j W.,X,X,X,X,X,X,X,X,X,X,X,X,X,X,X,X",
",X;X-X X|. X X'.F.F.E.^./.T.k U.|.[.#XB.B.!.{. X|.,X,X,X,X,X,X,X",
",X,X=X=X X X&X{.T.L.R.E.'.'.c S.].h.;.=.=.XXs.K.[.,X,X,X,X,X,X,X",
",X,X=X=X&X&X&X XR.L.'. X=X=XU 6.@X-.-.@.%.-.*.$.z.,X,X,X,X,X,X,X",
",X,X&X X&X|._._.Y.R.;X;X:X:X7.D m.-.-.%.%.%.-.+.o.k.,X,X,X,X,X,X",
",X,X}.|././.)._.&X|.*X:X:X>XG.k b.-.-.=.-.-.;.-.X.<.,X,X,X,X,X,X",
",X,X|.&X_.|. X}._.&X_.|. X.XL.g l.XX-.-.%.%.;.-.%.u ,X,X,X,X,X,X",
",X,X-X&XW.W.W.W.W._._._.}. X_.k D.n.&.-.+.%.-.-.O.8 C ,X,X,X,X,X",
",X,X,X_.).W.W. X*X X_._.)._.|.Z Q R.f.$.%.%.;.%.` 5 w.,X,X,X,X,X",
",X,X,X|..X|.}.*X&X*X*X|..X*X*X~ Z  X/.k.1.} ] i 4 4.R.,X,X,X,X,X",
",X,X,XG T Y T R ! ! E E ^ ) _ v s C.C.C.Q m h h N C.A.,X,X,X,X,X",
",X,X,X^ ^ R R ! ! ! F F F R R v p z G G Y F A Z S Y S ) ,X,X,X,X",
",X,X,X*X.X|.^.V.m.h.s.b.K.T.'.T.j Z.|./.c.:.J L ,.P.^.'.,X,X,X,X",
",X,X,X:X*X~.oX-.-.-.%.;.a.g.J.`.Z 6.*Xt.; + + + # 0 r.{.,X,X,X,X",
",X,X,X=X$XoX-.*.@.@.-.;.%.@.u.I.6.F `.0 + + + + + + - r.{.,X,X,X",
",X,X,X=X+X*.-.-.+.+.%.&.%.+.#.2.5.x x.& + + + + + + + 9 e.,X,X,X",
",X,X,X%Xj.=.;.=.%.%.=.-.-.%.%.] C d 3.# + + + + + + + @ w ,X,X,X",
",X,X,X%Xh.%.;.;.;.%.*.;.;.;.*.X.t a >.= + + + + + + + + < ,X,X,X",
",X,X,X[.M.=.-.;.;.-.-.-.;.;.%.[ 6 a W K + + + + + + + + : I ,X,X",
",X,X,XR.Q.;.=.-.%.+.+.-.-.%.+.` e l F v.* O + + + + +   > w.,X,X",
",X,X,X,X&XN.;.-.%.+.@.*.-.*. ., b / z W.>.% + + + + + . r G.,X,X",
",X,X,X,X*XT.p.$.*.*.%.;.-.#.7 2 w.S.s H.'.0.q $ @ o X 3 w.W.,X,X",
",X,X,X,X)._.T.q.<.X.| [ ' 1 3 5.'.W.d S.:X XE.0.B b b 5.'..X,X,X",
",X,X,X,X|.-X=X'.l.9.V y t b w./..X|.W 6.,X,X,X,X,X,X,X,X,X,X,X,X",
",X,X,X,X|.-X-X.X=X{.P.D.,X,X,X,X,X,X,X,X,X,X,X,X,X,X,X,X,X,X,X,X",
",X,X,X,X,X,X,X,X,X,X,X,X,X,X,X,X,X,X,X,X,X,X,X,X,X,X,X,X,X,X,X,X",
",X,X,X,X,X,X,X,X,X,X,X,X,X,X,X,X,X,X,X,X,X,X,X,X,X,X,X,X,X,X,X,X",
",X,X,X,X,X,X,X,X,X,X,X,X,X,X,X,X,X,X,X,X,X,X,X,X,X,X,X,X,X,X,X,X"
};
