/* XPM */
/* FIXME: encode the size into the name */
static char * arrow_blue_s_xpm[]=
{
"20 20 2 1",
". c blue",
"  c none",
"        ....        ",
"        ....        ",
"        ....        ",
"        ....        ",
"        ....        ",
"        ....        ",
"        ....        ",
"        ....        ",
"        ....        ",
"        ....        ",
"        ....        ",
"        ....        ",
"        ....        ",
"   ..............   ",
"    ............    ",
"     ..........     ",
"      ........      ",
"       ......       ",
"        ....        ",
"         ..         ",

};
static char * arrow_blue_n_xpm[]=
{
"20 20 2 1",
". c blue",
"  c none",
"         ..         ",
"        ....        ",
"       ......       ",
"      ........      ",
"     ..........     ",
"    ............    ",
"   ..............   ",
"        ....        ",
"        ....        ",
"        ....        ",
"        ....        ",
"        ....        ",
"        ....        ",
"        ....        ",
"        ....        ",
"        ....        ",
"        ....        ",
"        ....        ",
"        ....        ",
"        ....        ",

};
static char * arrow_blue_e_xpm[]=
{
"20 20 2 1",
". c blue",
"  c none",
"                    ",
"                    ",
"                    ",
"             .      ",
"             ..     ",
"             ...    ",
"             ....   ",
"             .....  ",
"................... ",
"....................",
"....................",
"................... ",
"             .....  ",
"             ....   ",
"             ...    ",
"             ..     ",
"             .      ",
"                    ",
"                    ",
"                    ",

};
static char * arrow_blue_w_xpm[]=
{
"20 20 2 1",
". c blue",
"  c none",
"                    ",
"                    ",
"                    ",
"      .             ",
"     ..             ",
"    ...             ",
"   ....             ",
"  .....             ",
" ...................",
"....................",
"....................",
" ...................",
"  .....             ",
"   ....             ",
"    ...             ",
"     ..             ",
"      .             ",
"                    ",
"                    ",
"                    ",

};
static char * arrow_blue_ne_xpm[]=
{
"20 20 2 1",
". c blue",
"  c none",
"             .......",
"              ......",
"               .....",
"              ......",
"             .......",
"            ..... ..",
"           .....   .",
"          .....     ",
"         .....      ",
"        .....       ",
"       .....        ",
"      .....         ",
"     .....          ",
"    .....           ",
"   .....            ",
"  .....             ",
" .....              ",
".....               ",
"....                ",
"...                 ",

};
static char * arrow_blue_se_xpm[]=
{
"20 20 2 1",
". c blue",
"  c none",
"...                 ",
"....                ",
".....               ",
" .....              ",
"  .....             ",
"   .....            ",
"    .....           ",
"     .....          ",
"      .....         ",
"       .....        ",
"        .....       ",
"         .....      ",
"          .....     ",
"           .....   .",
"            ..... ..",
"             .......",
"              ......",
"               .....",
"              ......",
"             .......",

};
static char * arrow_blue_sw_xpm[]=
{
"20 20 2 1",
". c blue",
"  c none",
"                 ...",
"                ....",
"               .....",
"              ..... ",
"             .....  ",
"            .....   ",
"           .....    ",
"          .....     ",
"         .....      ",
"        .....       ",
"       .....        ",
"      .....         ",
"     .....          ",
".   .....           ",
".. .....            ",
".......             ",
"......              ",
".....               ",
"......              ",
".......             ",

};
static char * arrow_blue_nw_xpm[]=
{
"20 20 2 1",
". c blue",
"  c none",
".......             ",
"......              ",
".....               ",
"......              ",
".......             ",
".. .....            ",
".   .....           ",
"     .....          ",
"      .....         ",
"       .....        ",
"        .....       ",
"         .....      ",
"          .....     ",
"           .....    ",
"            .....   ",
"             .....  ",
"              ..... ",
"               .....",
"                ....",
"                 ...",

};
