/* XPM */
static char * red_ball_55_xpm[]=
{
"55 55 2 1",
"  c red",
". c none",
".......................................................",
".......................................................",
".......................................................",
".......................................................",
".......................................................",
".......................................................",
".......................................................",
".......................         .......................",
"....................               ....................",
"..................                   ..................",
"................                       ................",
"...............                         ...............",
"..............                           ..............",
".............                             .............",
"............                               ............",
"...........                                 ...........",
"..........                                   ..........",
"..........                                   ..........",
".........                                     .........",
".........                                     .........",
"........                                       ........",
"........                                       ........",
"........                                       ........",
".......                                         .......",
".......                                         .......",
".......                                         .......",
".......                                         .......",
".......                                         .......",
".......                                         .......",
".......                                         .......",
".......                                         .......",
".......                                         .......",
"........                                       ........",
"........                                       ........",
"........                                       ........",
".........                                     .........",
".........                                     .........",
"..........                                   ..........",
"..........                                   ..........",
"...........                                 ...........",
"............                               ............",
".............                             .............",
"..............                           ..............",
"...............                         ...............",
"................                       ................",
"..................                   ..................",
"....................               ....................",
".......................         .......................",
".......................................................",
".......................................................",
".......................................................",
".......................................................",
".......................................................",
".......................................................",
".......................................................",

};

static char * green_ball_55_xpm[]=
{
"55 55 2 1",
"  c green",
". c none",
".......................................................",
".......................................................",
".......................................................",
".......................................................",
".......................................................",
".......................................................",
".......................................................",
".......................         .......................",
"....................               ....................",
"..................                   ..................",
"................                       ................",
"...............                         ...............",
"..............                           ..............",
".............                             .............",
"............                               ............",
"...........                                 ...........",
"..........                                   ..........",
"..........                                   ..........",
".........                                     .........",
".........                                     .........",
"........                                       ........",
"........                                       ........",
"........                                       ........",
".......                                         .......",
".......                                         .......",
".......                                         .......",
".......                                         .......",
".......                                         .......",
".......                                         .......",
".......                                         .......",
".......                                         .......",
".......                                         .......",
"........                                       ........",
"........                                       ........",
"........                                       ........",
".........                                     .........",
".........                                     .........",
"..........                                   ..........",
"..........                                   ..........",
"...........                                 ...........",
"............                               ............",
".............                             .............",
"..............                           ..............",
"...............                         ...............",
"................                       ................",
"..................                   ..................",
"....................               ....................",
".......................         .......................",
".......................................................",
".......................................................",
".......................................................",
".......................................................",
".......................................................",
".......................................................",
".......................................................",

};



static char *blue_ball_55_xpm[] = 

{
"55 55 2 1",
"  c blue",
". c none",
".......................................................",
".......................................................",
".......................................................",
".......................................................",
".......................................................",
".......................................................",
".......................................................",
".......................         .......................",
"....................               ....................",
"..................                   ..................",
"................                       ................",
"...............                         ...............",
"..............                           ..............",
".............                             .............",
"............                               ............",
"...........                                 ...........",
"..........                                   ..........",
"..........                                   ..........",
".........                                     .........",
".........                                     .........",
"........                                       ........",
"........                                       ........",
"........                                       ........",
".......                                         .......",
".......                                         .......",
".......                                         .......",
".......                                         .......",
".......                                         .......",
".......                                         .......",
".......                                         .......",
".......                                         .......",
".......                                         .......",
"........                                       ........",
"........                                       ........",
"........                                       ........",
".........                                     .........",
".........                                     .........",
"..........                                   ..........",
"..........                                   ..........",
"...........                                 ...........",
"............                               ............",
".............                             .............",
"..............                           ..............",
"...............                         ...............",
"................                       ................",
"..................                   ..................",
"....................               ....................",
".......................         .......................",
".......................................................",
".......................................................",
".......................................................",
".......................................................",
".......................................................",
".......................................................",
".......................................................",

};


static char * grey_ball_55_xpm[]=
{
"55 55 2 1",
"  c grey",
". c none",
".......................................................",
".......................................................",
".......................................................",
".......................................................",
".......................................................",
".......................................................",
".......................................................",
".......................         .......................",
"....................               ....................",
"..................                   ..................",
"................                       ................",
"...............                         ...............",
"..............                           ..............",
".............                             .............",
"............                               ............",
"...........                                 ...........",
"..........                                   ..........",
"..........                                   ..........",
".........                                     .........",
".........                                     .........",
"........                                       ........",
"........                                       ........",
"........                                       ........",
".......                                         .......",
".......                                         .......",
".......                                         .......",
".......                                         .......",
".......                                         .......",
".......                                         .......",
".......                                         .......",
".......                                         .......",
".......                                         .......",
"........                                       ........",
"........                                       ........",
"........                                       ........",
".........                                     .........",
".........                                     .........",
"..........                                   ..........",
"..........                                   ..........",
"...........                                 ...........",
"............                               ............",
".............                             .............",
"..............                           ..............",
"...............                         ...............",
"................                       ................",
"..................                   ..................",
"....................               ....................",
".......................         .......................",
".......................................................",
".......................................................",
".......................................................",
".......................................................",
".......................................................",
".......................................................",
".......................................................",

};


