/* XPM */
static char * red_X_40_xpm[]=
{
"40 40 2 1",
". c red",
"  c none",
"                                        ",
"                                        ",
"                                        ",
"                                        ",
"                                        ",
"                                        ",
"                                        ",
"        ..                    ..        ",
"       ....                  ....       ",
"       .....                .....       ",
"        .....              .....        ",
"         .....            .....         ",
"          .....          .....          ",
"           .....        .....           ",
"            .....      .....            ",
"             .....    .....             ",
"              .....  .....              ",
"               ..........               ",
"                ........                ",
"                 ......                 ",
"                 ......                 ",
"                ........                ",
"               ..........               ",
"              .....  .....              ",
"             .....    .....             ",
"            .....      .....            ",
"           .....        .....           ",
"          .....          .....          ",
"         .....            .....         ",
"        .....              .....        ",
"       .....                .....       ",
"       ....                  ....       ",
"        ..                    ..        ",
"                                        ",
"                                        ",
"                                        ",
"                                        ",
"                                        ",
"                                        ",
"                                        ",

};
