/* XPM */
static char * red_ball_55_xpm[]=
{
"55 55 3 1",
"  c yellow",
". c none",
"X c black",
".......................................................",
".......................................................",
".......................................................",
".......................................................",
".......................................................",
".......................................................",
".......................XXXXXXXX........................",
"....................XXX         XXX....................",
"..................XX               XX..................",
"................XX                   XX................",
"...............X                       X...............",
"..............X                         X..............",
".............X                           X.............",
"............X                             X............",
"...........X                               X...........",
"..........X                                 X..........",
".........X                                   X.........",
".........X                                   X.........",
"........X                                     X........",
"........X                                     X........",
".......X                                       X.......",
".......X                                       X.......",
".......X                                       X.......",
"......X                                         X......",
"......X                                         X......",
"......X                                         X......",
"......X                                         X......",
"......X                                         X......",
"......X                                         X......",
"......X                                         X......",
"......X                                         X......",
"......X                                         X......",
".......X                                       X.......",
".......X                                       X.......",
".......X                                       X.......",
"........X                                     X........",
"........X                                     X........",
".........X                                   X.........",
".........X                                   X.........",
"..........X                                 X..........",
"...........X                               X...........",
"............X                             X............",
".............X                           X.............",
"..............X                         X..............",
"...............X                       X...............",
"................XX                   XX................",
"..................XX               XX..................",
"....................XXX         XXX....................",
".......................XXXXXXXXX.......................",
".......................................................",
".......................................................",
".......................................................",
".......................................................",
".......................................................",
".......................................................",

};

static char * green_ball_55_xpm[]=
{
"55 55 2 1",
"  c green",
". c none",
".......................................................",
".......................................................",
".......................................................",
".......................................................",
".......................................................",
".......................................................",
".......................................................",
".......................         .......................",
"....................               ....................",
"..................                   ..................",
"................                       ................",
"...............                         ...............",
"..............                           ..............",
".............                             .............",
"............                               ............",
"...........                                 ...........",
"..........                                   ..........",
"..........                                   ..........",
".........                                     .........",
".........                                     .........",
"........                                       ........",
"........                                       ........",
"........                                       ........",
".......                                         .......",
".......                                         .......",
".......                                         .......",
".......                                         .......",
".......                                         .......",
".......                                         .......",
".......                                         .......",
".......                                         .......",
".......                                         .......",
"........                                       ........",
"........                                       ........",
"........                                       ........",
".........                                     .........",
".........                                     .........",
"..........                                   ..........",
"..........                                   ..........",
"...........                                 ...........",
"............                               ............",
".............                             .............",
"..............                           ..............",
"...............                         ...............",
"................                       ................",
"..................                   ..................",
"....................               ....................",
".......................         .......................",
".......................................................",
".......................................................",
".......................................................",
".......................................................",
".......................................................",
".......................................................",
".......................................................",

};



static char *blue_ball_55_xpm[] = 

{
"55 55 2 1",
"  c blue",
". c none",
".......................................................",
".......................................................",
".......................................................",
".......................................................",
".......................................................",
".......................................................",
".......................................................",
".......................         .......................",
"....................               ....................",
"..................                   ..................",
"................                       ................",
"...............                         ...............",
"..............                           ..............",
".............                             .............",
"............                               ............",
"...........                                 ...........",
"..........                                   ..........",
"..........                                   ..........",
".........                                     .........",
".........                                     .........",
"........                                       ........",
"........                                       ........",
"........                                       ........",
".......                                         .......",
".......                                         .......",
".......                                         .......",
".......                                         .......",
".......                                         .......",
".......                                         .......",
".......                                         .......",
".......                                         .......",
".......                                         .......",
"........                                       ........",
"........                                       ........",
"........                                       ........",
".........                                     .........",
".........                                     .........",
"..........                                   ..........",
"..........                                   ..........",
"...........                                 ...........",
"............                               ............",
".............                             .............",
"..............                           ..............",
"...............                         ...............",
"................                       ................",
"..................                   ..................",
"....................               ....................",
".......................         .......................",
".......................................................",
".......................................................",
".......................................................",
".......................................................",
".......................................................",
".......................................................",
".......................................................",

};


static char * grey_ball_55_xpm[]=
{
"55 55 2 1",
"  c grey",
". c none",
".......................................................",
".......................................................",
".......................................................",
".......................................................",
".......................................................",
".......................................................",
".......................................................",
".......................         .......................",
"....................               ....................",
"..................                   ..................",
"................                       ................",
"...............                         ...............",
"..............                           ..............",
".............                             .............",
"............                               ............",
"...........                                 ...........",
"..........                                   ..........",
"..........                                   ..........",
".........                                     .........",
".........                                     .........",
"........                                       ........",
"........                                       ........",
"........                                       ........",
".......                                         .......",
".......                                         .......",
".......                                         .......",
".......                                         .......",
".......                                         .......",
".......                                         .......",
".......                                         .......",
".......                                         .......",
".......                                         .......",
"........                                       ........",
"........                                       ........",
"........                                       ........",
".........                                     .........",
".........                                     .........",
"..........                                   ..........",
"..........                                   ..........",
"...........                                 ...........",
"............                               ............",
".............                             .............",
"..............                           ..............",
"...............                         ...............",
"................                       ................",
"..................                   ..................",
"....................               ....................",
".......................         .......................",
".......................................................",
".......................................................",
".......................................................",
".......................................................",
".......................................................",
".......................................................",
".......................................................",

};


